<svg width="180" height="180" xmlns="http://www.w3.org/2000/svg">
 <style type="text/css">.st0{fill:#1572BA;}
	.st1{fill:#FDFEFF;}
	.st2{fill:#93CBEE;}</style>

 <g>
  <title>background</title>
  <rect fill="none" id="canvas_background" height="602" width="802" y="-1" x="-1"/>
 </g>
 <g>
  <title>Layer 1</title>
  <rect fill="white" x="0.25316" y="-0.25316" height="180" width="180" class="st0" id="XMLID_2_"/>
  <g fill="white" id="XMLID_7_">
   <g id="XMLID_5_">
    <g id="XMLID_41_">
     <path d="m30,111.7c-2.6,0 -5.2,0 -7.7,0c-0.3,0 -0.4,0.1 -0.5,0.4c-0.8,2.3 -1.6,4.5 -2.4,6.8c-0.3,0.9 -0.3,0.9 -1.3,0.9c-3.1,0 -6.1,0 -9.2,0c-0.5,0 -0.5,0 -0.3,-0.4c0.8,-1.9 1.6,-3.9 2.3,-5.8c0.6,-1.6 1.3,-3.1 1.9,-4.6c0.9,-2.2 1.8,-4.4 2.6,-6.6c0.6,-1.6 1.3,-3.2 1.9,-4.7c0.7,-1.8 1.5,-3.7 2.2,-5.5c0.5,-1.3 1,-2.6 1.6,-3.8c0.6,-1.6 1.3,-3.2 1.9,-4.8c0.3,-0.8 0.7,-1.6 1,-2.4c0.1,-0.2 0.2,-0.2 0.4,-0.2c1,0 1.9,0 2.9,0c2.7,0 5.4,0 8.1,0c0.3,0 0.5,0.1 0.6,0.4c0.8,2 1.6,4 2.4,5.9c0.6,1.5 1.2,3 1.8,4.6c0.9,2.2 1.8,4.4 2.7,6.6c0.8,1.9 1.5,3.8 2.3,5.7c1,2.4 1.9,4.8 2.9,7.2c0.6,1.6 1.3,3.1 1.9,4.7c0.5,1.2 1,2.4 1.5,3.6c0.1,0.3 0,0.3 -0.3,0.3c-2,0 -4,0 -5.9,0c-1.3,0 -2.6,0 -3.8,0c-0.3,0 -0.4,-0.1 -0.5,-0.3c-0.7,-2 -1.4,-4 -2.1,-5.9c-0.2,-0.5 -0.4,-0.9 -0.5,-1.4c-0.1,-0.3 -0.2,-0.4 -0.5,-0.4c-1.9,0 -3.8,0 -5.6,0c-0.9,-0.3 -1.6,-0.3 -2.3,-0.3zm0,-22.3c-0.5,1.2 -0.9,2.3 -1.3,3.5c-0.9,2.5 -1.8,5 -2.7,7.5c-0.5,1.3 -0.9,2.6 -1.4,3.8c-0.1,0.3 0,0.3 0.3,0.3c3.4,0 6.9,0 10.3,0c0.3,0 0.3,-0.1 0.2,-0.3c-0.9,-2.4 -1.8,-4.8 -2.6,-7.3c-0.6,-1.7 -1.2,-3.3 -1.8,-5c-0.3,-0.7 -0.6,-1.5 -1,-2.5z" class="st1" id="XMLID_48_"/>
     <path d="m107.2,111.7c-2.6,0 -5.1,0 -7.7,0c-0.3,0 -0.5,0.1 -0.6,0.4c-0.9,2.4 -1.8,4.9 -2.6,7.3c-0.1,0.3 -0.2,0.4 -0.5,0.4c-3.2,0 -6.4,0 -9.7,0c-0.5,0 -0.5,0 -0.3,-0.5c0.7,-1.6 1.3,-3.3 2,-4.9c0.5,-1.3 1,-2.6 1.6,-3.8c0.9,-2.1 1.7,-4.3 2.6,-6.4c0.7,-1.7 1.4,-3.3 2,-5c0.7,-1.8 1.4,-3.6 2.2,-5.4c0.5,-1.2 1,-2.4 1.5,-3.7c0.8,-2 1.6,-3.9 2.4,-5.9c0.4,-1.1 0.9,-2.1 1.3,-3.2c0.1,-0.2 0.2,-0.3 0.4,-0.3c3.7,0 7.4,0 11.1,0c0.2,0 0.3,0.1 0.4,0.3c0.9,2.3 1.8,4.6 2.8,6.9c0.6,1.6 1.3,3.2 1.9,4.7c0.9,2.1 1.7,4.2 2.6,6.4c0.6,1.6 1.3,3.1 1.9,4.7c1,2.5 2,4.9 3,7.4c0.6,1.6 1.3,3.1 1.9,4.7c0.5,1.2 0.9,2.4 1.4,3.5c0.1,0.3 -0.1,0.3 -0.3,0.3c-2.5,0 -5.1,0 -7.6,0c-0.7,0 -1.5,0 -2.2,0c-0.2,0 -0.3,-0.1 -0.4,-0.3c-0.6,-1.7 -1.2,-3.4 -1.8,-5.1c-0.3,-0.8 -0.6,-1.6 -0.9,-2.4c-0.1,-0.2 -0.2,-0.2 -0.4,-0.2c-1.7,0 -3.4,0 -5.1,0c-1,0.1 -1.9,0.1 -2.9,0.1zm0.1,-22.2c-0.6,1.5 -1.1,3 -1.6,4.4c-0.7,1.8 -1.3,3.6 -2,5.4c-0.6,1.6 -1.2,3.3 -1.8,4.9c-0.1,0.4 -0.1,0.4 0.3,0.4c3.2,0 6.4,0 9.7,0c1,0 0.9,0 0.6,-0.9c-0.9,-2.6 -1.9,-5.1 -2.8,-7.7c-0.5,-1.3 -1,-2.7 -1.5,-4c-0.3,-0.8 -0.6,-1.6 -0.9,-2.5z" class="st1" id="XMLID_45_"/>
     <path d="m51.4,87.5c0.1,-0.1 0,-0.3 0,-0.5c0,-9.3 0,-18.5 0,-27.8c0,-1.9 0.1,-3.8 0.5,-5.7c0.5,-2 1.3,-3.8 2.8,-5.3c0.6,-0.6 1.2,-1 1.9,-1.4c1.8,-1 3.8,-1.5 5.8,-1.7c2.8,-0.2 5.5,-0.1 8.3,-0.1c2,0 4,0.1 6,0.6c1.5,0.4 2.9,0.9 4.2,1.7c2.1,1.3 3.6,3.2 4.4,5.5c0.6,1.8 0.8,3.7 0.9,5.6c0,0.7 0,1.4 0,2.1c0,0.3 -0.1,0.3 -0.3,0.3c-3,0 -6.1,0 -9.1,0c-0.3,0 -0.3,-0.1 -0.3,-0.4c0,-1 0,-2 0,-3c-0.1,-1.3 -0.4,-2.6 -1.3,-3.6c-0.9,-1.1 -2,-1.7 -3.4,-1.7c-2.2,0 -4.3,0 -6.5,0c-1.2,0 -2.2,0.4 -3.1,1.1c-0.9,0.7 -1.5,1.6 -1.8,2.7c-0.4,1.2 -0.5,2.4 -0.5,3.7c0,9.1 0,18.2 0,27.4c0,0.1 0,0.3 0,0.5c0.2,-0.2 0.4,-0.4 0.5,-0.5c0.7,-0.8 1.4,-1.6 2.1,-2.3c0.7,-0.8 1.4,-1.5 2.1,-2.3c0.2,-0.3 0.4,-0.2 0.6,0c1.2,1.3 2.3,2.6 3.5,3.9c0.2,0.2 0.3,0.3 0.5,0.5s0.2,0.3 0,0.5c-0.9,1 -1.8,2 -2.8,3c-1.3,1.4 -2.6,2.9 -4,4.3c-1,1.1 -2.1,2.3 -3.1,3.4c-1.1,1.2 -2.2,2.5 -3.4,3.7c-0.5,0.5 -0.4,0.5 -0.9,0c-0.7,-0.7 -1.3,-1.4 -1.9,-2.1c-1.2,-1.3 -2.4,-2.5 -3.5,-3.8c-0.7,-0.8 -1.5,-1.6 -2.2,-2.4c-1.2,-1.3 -2.3,-2.6 -3.5,-3.9c-0.7,-0.7 -1.3,-1.4 -2,-2.1c-0.2,-0.2 -0.2,-0.3 0,-0.5c1,-1.1 2,-2.1 3,-3.2c0.4,-0.4 0.8,-0.8 1.1,-1.3c0.2,-0.2 0.3,-0.2 0.5,0c0.6,0.7 1.3,1.4 1.9,2.1c0.3,0.3 0.5,0.6 0.8,0.9c0.6,0.7 1.2,1.4 1.9,2c0.1,0.1 0.1,0.1 0.3,0.1z" class="st1" id="XMLID_44_"/>
     <path d="m77.1,78.7c-0.5,0.5 -0.9,1 -1.4,1.5c-0.3,0.3 -0.6,0.6 -0.9,0.9c-0.8,0.9 -1.7,1.8 -2.5,2.8c-0.2,0.2 -0.3,0.2 -0.5,0c-0.9,-1 -1.8,-2 -2.8,-3c-0.4,-0.4 -0.8,-0.9 -1.2,-1.3c-0.3,-0.3 -0.3,-0.4 0,-0.7c1.2,-1.3 2.4,-2.6 3.6,-4c0.6,-0.6 1.2,-1.3 1.8,-1.9c1.3,-1.4 2.5,-2.7 3.8,-4.1c0.6,-0.6 1.2,-1.3 1.8,-1.9c0.7,-0.8 1.5,-1.6 2.2,-2.4c0.1,-0.1 0.1,-0.1 0.2,-0.2c0.1,-0.2 0.3,-0.2 0.4,0c0.4,0.5 0.9,1 1.3,1.5c0.9,1 1.8,1.9 2.7,2.9c1,1.1 2.1,2.3 3.1,3.4c0.8,0.9 1.6,1.7 2.4,2.6c1,1.1 2.1,2.3 3.1,3.4c0.2,0.2 0.4,0.5 0.6,0.6c0.3,0.2 0.2,0.4 0,0.6c-0.5,0.5 -1,1.1 -1.5,1.6c-0.8,0.9 -1.7,1.8 -2.5,2.7c-0.2,0.2 -0.3,0.3 -0.5,0c-0.6,-0.7 -1.2,-1.4 -1.9,-2c-0.7,-0.7 -1.3,-1.5 -2,-2.2c-0.3,-0.3 -0.5,-0.7 -0.9,-0.9c-0.1,0.2 0,0.3 0,0.5c0,9.5 0,18.9 0,28.4c0,2.1 -0.2,4.2 -0.8,6.2c-0.5,1.5 -1.1,2.8 -2.2,4c-1.3,1.3 -2.8,2.1 -4.5,2.7s-3.5,0.8 -5.3,0.8c-2.5,0 -5,0 -7.6,0c-1.7,0 -3.3,-0.2 -4.9,-0.6c-0.9,-0.2 -1.8,-0.4 -2.6,-0.8c-1,-0.5 -2,-1 -2.9,-1.7c-1.7,-1.4 -2.8,-3.2 -3.5,-5.4c-0.6,-2.1 -0.7,-4.3 -0.6,-6.5c0,-0.9 0,-0.9 0.9,-0.9c2.8,0 5.5,0 8.3,0c0.5,0 0.5,0 0.5,0.5c0,1.2 -0.1,2.5 0.1,3.7c0.2,1.3 0.7,2.4 1.6,3.3c0.7,0.7 1.6,1.1 2.6,1.2c2,0.1 3.9,0 5.9,0.1c0.8,0 1.6,0 2.3,-0.3c1.5,-0.5 2.6,-1.4 3.3,-2.9c0.5,-1.1 0.7,-2.3 0.7,-3.5c0.1,-0.9 0,-1.8 0,-2.7c0,-8.5 0,-17 0,-25.5c0.4,-0.2 0.4,-0.3 0.3,-0.5c0.1,0 0.1,0 0,0z" class="st1" id="XMLID_43_"/>
     <path d="m150.7,106.7c-1.1,1.7 -2.2,3.4 -3.4,5c-1.1,1.7 -2.3,3.4 -3.4,5.1c-0.6,0.9 -1.2,1.8 -1.8,2.7c-0.1,0.2 -0.2,0.2 -0.4,0.2c-3.8,0 -7.6,0 -11.4,0c-0.1,0 -0.3,0.1 -0.3,-0.1c0,-0.1 0.1,-0.2 0.1,-0.3c1.1,-1.4 2.1,-2.8 3.2,-4.2c0.8,-1 1.6,-2.1 2.4,-3.1c0.9,-1.2 1.8,-2.4 2.7,-3.7c0.6,-0.7 1.1,-1.5 1.7,-2.2c1,-1.3 1.9,-2.6 2.9,-3.9c0.6,-0.7 1.1,-1.5 1.7,-2.2c0.4,-0.4 0.4,-0.5 0,-0.9c-1.1,-1.5 -2.2,-3 -3.3,-4.4c-0.8,-1.1 -1.6,-2.2 -2.4,-3.3c-1.3,-1.7 -2.6,-3.5 -3.9,-5.2c-0.8,-1.1 -1.7,-2.3 -2.5,-3.4c-0.4,-0.6 -0.9,-1.2 -1.3,-1.8c-0.1,-0.1 -0.2,-0.2 -0.1,-0.3c0.1,-0.1 0.2,-0.1 0.3,-0.1c0.8,0 1.7,0 2.5,0c2.8,0 5.6,0 8.4,0c0.2,0 0.4,0 0.6,0.3c1,1.5 1.9,3 2.9,4.5c0.9,1.4 1.8,2.8 2.7,4.1c0.6,0.9 1.2,1.9 1.8,2.8c0.2,0.3 0.2,0.3 0.5,0c0.7,-1.1 1.4,-2.2 2.2,-3.3c1.2,-1.8 2.4,-3.7 3.6,-5.5c0.6,-0.8 1.1,-1.7 1.7,-2.6c0.2,-0.2 0.3,-0.3 0.6,-0.3c2.8,0 5.7,0 8.5,0c0.8,0 1.6,0 2.4,0c0.1,0 0.2,0 0.3,0.1c0,0.1 -0.1,0.2 -0.1,0.3c-1.2,1.6 -2.4,3.2 -3.6,4.9c-1,1.4 -2,2.7 -3,4.1c-1.1,1.6 -2.3,3.1 -3.4,4.7c-0.6,0.8 -1.2,1.5 -1.7,2.3c-0.6,0.8 -1.2,1.6 -1.8,2.5c-0.2,0.2 0,0.3 0.1,0.5c0.2,0.3 0.5,0.7 0.7,1c0.8,1 1.6,2 2.4,3.1c1,1.3 1.9,2.6 2.9,3.9c1,1.4 2.1,2.7 3.1,4.1c0.6,0.7 1.1,1.4 1.7,2.2c0.7,1 1.5,2 2.2,2.9c0.6,0.8 1.2,1.5 1.7,2.3c0.1,0.1 0.2,0.2 0.1,0.3c-0.1,0.1 -0.2,0.1 -0.3,0.1c-3.8,0 -7.6,0 -11.4,0c-0.2,0 -0.3,0 -0.4,-0.2c-1,-1.4 -1.9,-2.9 -2.9,-4.3c-0.7,-1 -1.4,-2 -2,-3c-1.3,-2 -2.5,-3.8 -3.8,-5.7z" class="st1" id="XMLID_42_"/>
    </g>
   </g>
   <g id="XMLID_8_">
    <rect height="8.7" width="122.7" class="st2" y="145.7" x="28.7" id="XMLID_1_"/>
   </g>
   <g id="XMLID_4_">
    <rect height="8.7" width="122.7" class="st2" y="17" x="28.7" id="XMLID_6_"/>
   </g>
  </g>
  <rect id="svg_1" height="21.26582" width="127.08861" y="11.77215" x="25.94937" stroke-width="NaN" fill="#1572ba"/>
  <rect id="svg_3" height="21.26582" width="127.08861" y="11.77215" x="26.20253" stroke-width="NaN" fill="#1572ba"/>
  <rect id="svg_4" height="21.26582" width="127.08861" y="137.0886" x="26.96203" stroke-width="NaN" fill="#1572ba"/>
 </g>
</svg>